<?xml version="1.0" encoding="utf-8"?>
<!-- Svg Vector Icons : http://www.onlinewebfonts.com/icon -->
<!DOCTYPE svg PUBLIC "-//W3C//DTD SVG 1.1//EN" "http://www.w3.org/Graphics/SVG/1.1/DTD/svg11.dtd">
<svg version="1.1" xmlns="http://www.w3.org/2000/svg" xmlns:xlink="http://www.w3.org/1999/xlink" x="0px" y="0px" viewBox="0 0 1000 1000" enable-background="new 0 0 1000 1000" xml:space="preserve">
<metadata> Svg Vector Icons : http://www.onlinewebfonts.com/icon </metadata>
<g fill="white"><path d="M759.3,923.1L76.9,240.7c-52.8-52.8-52.8-138.3,0-191.1l0,0c52.8-52.8,138.3-52.8,191.1,0L950.4,732c52.8,52.8,52.8,138.3,0,191.1l0,0C897.7,975.9,812.1,975.9,759.3,923.1z"/><path d="M49.6,759.3L732,76.9c52.8-52.8,138.3-52.8,191.1,0l0,0c52.8,52.8,52.8,138.3,0,191.1L240.7,950.4c-52.8,52.8-138.3,52.8-191.1,0l0,0C-3.2,897.7-3.2,812.1,49.6,759.3z"/></g>
</svg>